<svg width="20" height="20" viewBox="0 0 20 20" fill="none" xmlns="http://www.w3.org/2000/svg">
<path fill-rule="evenodd" clip-rule="evenodd" d="M0.833374 14.334L0.833374 5.665C0.833374 2.26137 3.06024 0 6.25637 0H13.7437C16.9365 0 19.1667 2.2681 19.1667 5.665V14.334C19.1667 17.7378 16.9397 20 13.7437 20H6.25637C3.06042 20 0.833374 17.7378 0.833374 14.334ZM2.20837 5.665L2.20837 14.334C2.20837 16.8845 3.79876 18.5 6.25637 18.5H13.7437C16.2013 18.5 17.7917 16.8845 17.7917 14.334V5.665C17.7917 3.12096 16.1978 1.5 13.7437 1.5H6.25637C3.7985 1.5 2.20837 3.11476 2.20837 5.665ZM5.56704 10C5.56704 9.6203 5.82568 9.30651 6.16125 9.25685L6.25454 9.25H12.0801L9.81038 6.78346C9.56579 6.51776 9.54278 6.10115 9.74191 5.80707L9.80831 5.7228C10.0519 5.45597 10.4338 5.43087 10.7033 5.6481L10.7806 5.72054L14.2309 9.46854C14.4762 9.73504 14.4986 10.1532 14.2978 10.4472L14.2953 10.4504C14.2761 10.4782 14.2552 10.5045 14.2327 10.5292L14.2309 10.5315L10.7806 14.2795C10.5115 14.5717 10.0762 14.5707 9.80831 14.2772C9.56476 14.0104 9.54338 13.5937 9.74365 13.3005L9.81038 13.2165L12.0814 10.75H6.25454C5.87484 10.75 5.56704 10.4142 5.56704 10Z" fill="#0B315E"/>
</svg>
