<svg width="50" height="40" viewBox="0 0 50 40" fill="none" xmlns="http://www.w3.org/2000/svg">
<path fill-rule="evenodd" clip-rule="evenodd" d="M16.6385 5.71429V0C11.0642 1.28701 6.89754 4.1956 4.13851 8.72587C1.37949 13.2561 0 19.4079 0 27.1815V40H18.75V22.8571H10.7264V21.0811C10.7264 16.9112 11.219 13.5521 12.2044 11.0039C13.1898 8.45559 14.6678 6.69241 16.6385 5.71429ZM47.8885 5.71429V0C42.3142 1.28701 38.1475 4.1956 35.3885 8.72587C32.6295 13.2561 31.25 19.4079 31.25 27.1815V40H50V22.8571H41.9764V21.0811C41.9764 16.9112 42.469 13.5521 43.4544 11.0039C44.4398 8.45559 45.9178 6.69241 47.8885 5.71429Z" fill="#363636"/>
</svg>
