<svg width="50" height="40" viewBox="0 0 50 40" fill="none" xmlns="http://www.w3.org/2000/svg">
<path fill-rule="evenodd" clip-rule="evenodd" d="M33.3615 34.2857V40C38.9358 38.713 43.1025 35.8044 45.8615 31.2741C48.6205 26.7439 50 20.5921 50 12.8185L50 0H31.25V17.1429L39.2736 17.1429V18.9189C39.2736 23.0888 38.781 26.4479 37.7956 28.9961C36.8102 31.5444 35.3322 33.3076 33.3615 34.2857ZM2.11149 34.2857V40C7.68584 38.713 11.8525 35.8044 14.6115 31.2741C17.3705 26.7439 18.75 20.5921 18.75 12.8185V0H0L0 17.1429L8.02365 17.1429V18.9189C8.02365 23.0888 7.53098 26.4479 6.54561 28.9961C5.56025 31.5444 4.08222 33.3076 2.11149 34.2857Z" fill="#363636"/>
</svg>
